# xmcd
#
# Track frame offsets:
# 150
# 16758
# 30624
# 46870
# 62602
# 77549
# 91145
# 106630
# 122011
# 136589
# 150150
# 166618
# 182735
# 201511
#
# Disc length: 2886 seconds
#
#
# Revision: 0
# Processed by: cddbd v1.5.2PL0 Copyright (c) Steve Scherf et al.
# Submitted via: FreeRIP 2.944 
#
DISCID=930b440e
DTITLE=Banda Danubio Azul - Fora de Controle
DYEAR=1900
DGENRE=bandas
TTITLE0=Fora de Controle
TTITLE1=Pegar Ou Largar
TTITLE2=Quwbrou o Encanto
TTITLE3=Alma e Coracao
TTITLE4=Oi Como Vai
TTITLE5=Clube Dos Espulsos
TTITLE6=Bebo Por Ela
TTITLE7=Historia De Amor
TTITLE8=To Morrendo De Saudade
TTITLE9=Vira e Nexe
TTITLE10=Lobo Mal
TTITLE11=Paixao Nasce de Um Olhar
TTITLE12=Minha Vida
TTITLE13=Amor De Novela
EXTD=
EXTT0=
EXTT1=
EXTT2=
EXTT3=
EXTT4=
EXTT5=
EXTT6=
EXTT7=
EXTT8=
EXTT9=
EXTT10=
EXTT11=
EXTT12=
EXTT13=
PLAYORDER=
